<svg xmlns="http://www.w3.org/2000/svg" width="900" height="463" viewBox="0 0 900 463" role="img" aria-labelledby="title desc">
<title id="title">Variação em 7 dias: Investimentos EA FC: Zagueiros em 21/07 — PC</title>
<desc id="desc">Gráfico gerado a partir da tabela publicada neste artigo.</desc>
<rect width="100%" height="100%" rx="20" fill="#0f172a"/>
<text x="28" y="42" fill="#f8fafc" font-family="system-ui,sans-serif" font-size="23" font-weight="700">Variação em 7 dias</text>
<text x="28" y="70" fill="#94a3b8" font-family="system-ui,sans-serif" font-size="15">Dados do recorte publicado no artigo</text>
<text x="28" y="117" fill="#e2e8f0" font-family="system-ui,sans-serif" font-size="16">Mapi León</text>
<rect x="285" y="95" width="480" height="28" rx="7" fill="#22c55e"/>
<text x="775" y="116" fill="#f8fafc" font-family="system-ui,sans-serif" font-size="15" font-weight="700">+70.2%</text>
<text x="28" y="175" fill="#e2e8f0" font-family="system-ui,sans-serif" font-size="16">Tsuyoshi Watanabe</text>
<rect x="285" y="153" width="436" height="28" rx="7" fill="#22c55e"/>
<text x="731" y="174" fill="#f8fafc" font-family="system-ui,sans-serif" font-size="15" font-weight="700">+63.8%</text>
<text x="28" y="233" fill="#e2e8f0" font-family="system-ui,sans-serif" font-size="16">Josip Šutalo</text>
<rect x="285" y="211" width="429" height="28" rx="7" fill="#22c55e"/>
<text x="724" y="232" fill="#f8fafc" font-family="system-ui,sans-serif" font-size="15" font-weight="700">+62.8%</text>
<text x="28" y="291" fill="#e2e8f0" font-family="system-ui,sans-serif" font-size="16">Nico Schlotterbeck</text>
<rect x="285" y="269" width="410" height="28" rx="7" fill="#22c55e"/>
<text x="705" y="290" fill="#f8fafc" font-family="system-ui,sans-serif" font-size="15" font-weight="700">+60.0%</text>
<text x="28" y="349" fill="#e2e8f0" font-family="system-ui,sans-serif" font-size="16">Jerdy Schouten</text>
<rect x="285" y="327" width="320" height="28" rx="7" fill="#22c55e"/>
<text x="615" y="348" fill="#f8fafc" font-family="system-ui,sans-serif" font-size="15" font-weight="700">+46.8%</text>
<text x="28" y="407" fill="#e2e8f0" font-family="system-ui,sans-serif" font-size="16">Steph Catley</text>
<rect x="285" y="385" width="250" height="28" rx="7" fill="#22c55e"/>
<text x="545" y="406" fill="#f8fafc" font-family="system-ui,sans-serif" font-size="15" font-weight="700">+36.6%</text>
</svg>
