<svg xmlns="http://www.w3.org/2000/svg" width="900" height="463" viewBox="0 0 900 463" role="img" aria-labelledby="title desc">
<title id="title">Variação em 7 dias: Momentum de Zagueiros no EA FC em 18/06 — PS</title>
<desc id="desc">Gráfico gerado a partir da tabela publicada neste artigo.</desc>
<rect width="100%" height="100%" rx="20" fill="#0f172a"/>
<text x="28" y="42" fill="#f8fafc" font-family="system-ui,sans-serif" font-size="23" font-weight="700">Variação em 7 dias</text>
<text x="28" y="70" fill="#94a3b8" font-family="system-ui,sans-serif" font-size="15">Dados do recorte publicado no artigo</text>
<text x="28" y="117" fill="#e2e8f0" font-family="system-ui,sans-serif" font-size="16">Ingrid Syrstad Engen</text>
<rect x="285" y="95" width="480" height="28" rx="7" fill="#22c55e"/>
<text x="775" y="116" fill="#f8fafc" font-family="system-ui,sans-serif" font-size="15" font-weight="700">+86.2%</text>
<text x="28" y="175" fill="#e2e8f0" font-family="system-ui,sans-serif" font-size="16">Marcos Senesi</text>
<rect x="285" y="153" width="268" height="28" rx="7" fill="#22c55e"/>
<text x="563" y="174" fill="#f8fafc" font-family="system-ui,sans-serif" font-size="15" font-weight="700">+48.1%</text>
<text x="28" y="233" fill="#e2e8f0" font-family="system-ui,sans-serif" font-size="16">Leah Williamson</text>
<rect x="285" y="211" width="268" height="28" rx="7" fill="#22c55e"/>
<text x="563" y="232" fill="#f8fafc" font-family="system-ui,sans-serif" font-size="15" font-weight="700">+48.1%</text>
<text x="28" y="291" fill="#e2e8f0" font-family="system-ui,sans-serif" font-size="16">Andrea Barzagli</text>
<rect x="285" y="269" width="256" height="28" rx="7" fill="#22c55e"/>
<text x="551" y="290" fill="#f8fafc" font-family="system-ui,sans-serif" font-size="15" font-weight="700">+46.0%</text>
<text x="28" y="349" fill="#e2e8f0" font-family="system-ui,sans-serif" font-size="16">Ricardo Carvalho</text>
<rect x="285" y="327" width="252" height="28" rx="7" fill="#22c55e"/>
<text x="547" y="348" fill="#f8fafc" font-family="system-ui,sans-serif" font-size="15" font-weight="700">+45.2%</text>
<text x="28" y="407" fill="#e2e8f0" font-family="system-ui,sans-serif" font-size="16">Ousmane Diomande</text>
<rect x="285" y="385" width="234" height="28" rx="7" fill="#22c55e"/>
<text x="529" y="406" fill="#f8fafc" font-family="system-ui,sans-serif" font-size="15" font-weight="700">+42.1%</text>
</svg>
