<svg xmlns="http://www.w3.org/2000/svg" width="900" height="463" viewBox="0 0 900 463" role="img" aria-labelledby="title desc">
<title id="title">Variação em 7 dias: Momentum de Zagueiros no EA FC em 01/06 — PC</title>
<desc id="desc">Gráfico gerado a partir da tabela publicada neste artigo.</desc>
<rect width="100%" height="100%" rx="20" fill="#0f172a"/>
<text x="28" y="42" fill="#f8fafc" font-family="system-ui,sans-serif" font-size="23" font-weight="700">Variação em 7 dias</text>
<text x="28" y="70" fill="#94a3b8" font-family="system-ui,sans-serif" font-size="15">Dados do recorte publicado no artigo</text>
<text x="28" y="117" fill="#e2e8f0" font-family="system-ui,sans-serif" font-size="16">Loïc Badé</text>
<rect x="285" y="95" width="480" height="28" rx="7" fill="#22c55e"/>
<text x="775" y="116" fill="#f8fafc" font-family="system-ui,sans-serif" font-size="15" font-weight="700">+80.5%</text>
<text x="28" y="175" fill="#e2e8f0" font-family="system-ui,sans-serif" font-size="16">Jade Rose</text>
<rect x="285" y="153" width="470" height="28" rx="7" fill="#22c55e"/>
<text x="765" y="174" fill="#f8fafc" font-family="system-ui,sans-serif" font-size="15" font-weight="700">+78.9%</text>
<text x="28" y="233" fill="#e2e8f0" font-family="system-ui,sans-serif" font-size="16">Vanessa Gilles</text>
<rect x="285" y="211" width="419" height="28" rx="7" fill="#22c55e"/>
<text x="714" y="232" fill="#f8fafc" font-family="system-ui,sans-serif" font-size="15" font-weight="700">+70.2%</text>
<text x="28" y="291" fill="#e2e8f0" font-family="system-ui,sans-serif" font-size="16">Manuel Akanji</text>
<rect x="285" y="269" width="252" height="28" rx="7" fill="#22c55e"/>
<text x="547" y="290" fill="#f8fafc" font-family="system-ui,sans-serif" font-size="15" font-weight="700">+42.2%</text>
<text x="28" y="349" fill="#e2e8f0" font-family="system-ui,sans-serif" font-size="16">Vanessa Gilles</text>
<rect x="285" y="327" width="244" height="28" rx="7" fill="#22c55e"/>
<text x="539" y="348" fill="#f8fafc" font-family="system-ui,sans-serif" font-size="15" font-weight="700">+40.9%</text>
<text x="28" y="407" fill="#e2e8f0" font-family="system-ui,sans-serif" font-size="16">Milan Škriniar</text>
<rect x="285" y="385" width="206" height="28" rx="7" fill="#22c55e"/>
<text x="501" y="406" fill="#f8fafc" font-family="system-ui,sans-serif" font-size="15" font-weight="700">+34.6%</text>
</svg>
