<svg xmlns="http://www.w3.org/2000/svg" width="900" height="463" viewBox="0 0 900 463" role="img" aria-labelledby="title desc">
<title id="title">Variação em 7 dias: Investimentos EA FC: Zagueiros em 22/07 — Console (PS)</title>
<desc id="desc">Gráfico gerado a partir da tabela publicada neste artigo.</desc>
<rect width="100%" height="100%" rx="20" fill="#0f172a"/>
<text x="28" y="42" fill="#f8fafc" font-family="system-ui,sans-serif" font-size="23" font-weight="700">Variação em 7 dias</text>
<text x="28" y="70" fill="#94a3b8" font-family="system-ui,sans-serif" font-size="15">Dados do recorte publicado no artigo</text>
<text x="28" y="117" fill="#e2e8f0" font-family="system-ui,sans-serif" font-size="16">Tsuyoshi Watanabe</text>
<rect x="285" y="95" width="480" height="28" rx="7" fill="#22c55e"/>
<text x="775" y="116" fill="#f8fafc" font-family="system-ui,sans-serif" font-size="15" font-weight="700">+74.6%</text>
<text x="28" y="175" fill="#e2e8f0" font-family="system-ui,sans-serif" font-size="16">Michael Boxall</text>
<rect x="285" y="153" width="472" height="28" rx="7" fill="#22c55e"/>
<text x="767" y="174" fill="#f8fafc" font-family="system-ui,sans-serif" font-size="15" font-weight="700">+73.3%</text>
<text x="28" y="233" fill="#e2e8f0" font-family="system-ui,sans-serif" font-size="16">Laura Georges</text>
<rect x="285" y="211" width="450" height="28" rx="7" fill="#22c55e"/>
<text x="745" y="232" fill="#f8fafc" font-family="system-ui,sans-serif" font-size="15" font-weight="700">+70.0%</text>
<text x="28" y="291" fill="#e2e8f0" font-family="system-ui,sans-serif" font-size="16">Craig Halkett</text>
<rect x="285" y="269" width="438" height="28" rx="7" fill="#22c55e"/>
<text x="733" y="290" fill="#f8fafc" font-family="system-ui,sans-serif" font-size="15" font-weight="700">+68.1%</text>
<text x="28" y="349" fill="#e2e8f0" font-family="system-ui,sans-serif" font-size="16">Mark McKenzie</text>
<rect x="285" y="327" width="435" height="28" rx="7" fill="#22c55e"/>
<text x="730" y="348" fill="#f8fafc" font-family="system-ui,sans-serif" font-size="15" font-weight="700">+67.6%</text>
<text x="28" y="407" fill="#e2e8f0" font-family="system-ui,sans-serif" font-size="16">Vitor Reis</text>
<rect x="285" y="385" width="353" height="28" rx="7" fill="#22c55e"/>
<text x="648" y="406" fill="#f8fafc" font-family="system-ui,sans-serif" font-size="15" font-weight="700">+54.8%</text>
</svg>
