<svg xmlns="http://www.w3.org/2000/svg" width="900" height="463" viewBox="0 0 900 463" role="img" aria-labelledby="title desc">
<title id="title">Variação em 7 dias: Investimentos EA FC: Zagueiros em 24/07 — Console (PS)</title>
<desc id="desc">Gráfico gerado a partir da tabela publicada neste artigo.</desc>
<rect width="100%" height="100%" rx="20" fill="#0f172a"/>
<text x="28" y="42" fill="#f8fafc" font-family="system-ui,sans-serif" font-size="23" font-weight="700">Variação em 7 dias</text>
<text x="28" y="70" fill="#94a3b8" font-family="system-ui,sans-serif" font-size="15">Dados do recorte publicado no artigo</text>
<text x="28" y="117" fill="#e2e8f0" font-family="system-ui,sans-serif" font-size="16">Laura Georges</text>
<rect x="285" y="95" width="480" height="28" rx="7" fill="#22c55e"/>
<text x="775" y="116" fill="#f8fafc" font-family="system-ui,sans-serif" font-size="15" font-weight="700">+73.0%</text>
<text x="28" y="175" fill="#e2e8f0" font-family="system-ui,sans-serif" font-size="16">Kevin Diks</text>
<rect x="285" y="153" width="446" height="28" rx="7" fill="#22c55e"/>
<text x="741" y="174" fill="#f8fafc" font-family="system-ui,sans-serif" font-size="15" font-weight="700">+67.8%</text>
<text x="28" y="233" fill="#e2e8f0" font-family="system-ui,sans-serif" font-size="16">Kim Min Jae</text>
<rect x="285" y="211" width="441" height="28" rx="7" fill="#22c55e"/>
<text x="736" y="232" fill="#f8fafc" font-family="system-ui,sans-serif" font-size="15" font-weight="700">+67.1%</text>
<text x="28" y="291" fill="#e2e8f0" font-family="system-ui,sans-serif" font-size="16">Cristina Cubedo</text>
<rect x="285" y="269" width="329" height="28" rx="7" fill="#22c55e"/>
<text x="624" y="290" fill="#f8fafc" font-family="system-ui,sans-serif" font-size="15" font-weight="700">+50.0%</text>
<text x="28" y="349" fill="#e2e8f0" font-family="system-ui,sans-serif" font-size="16">Leny Yoro</text>
<rect x="285" y="327" width="277" height="28" rx="7" fill="#22c55e"/>
<text x="572" y="348" fill="#f8fafc" font-family="system-ui,sans-serif" font-size="15" font-weight="700">+42.1%</text>
<text x="28" y="407" fill="#e2e8f0" font-family="system-ui,sans-serif" font-size="16">Maya Le Tissier</text>
<rect x="285" y="385" width="268" height="28" rx="7" fill="#22c55e"/>
<text x="563" y="406" fill="#f8fafc" font-family="system-ui,sans-serif" font-size="15" font-weight="700">+40.7%</text>
</svg>
