<svg xmlns="http://www.w3.org/2000/svg" width="900" height="463" viewBox="0 0 900 463" role="img" aria-labelledby="title desc">
<title id="title">Variação em 24h: Mercado EA FC em 18/07: Zagueiros — Console (PS)</title>
<desc id="desc">Gráfico gerado a partir da tabela publicada neste artigo.</desc>
<rect width="100%" height="100%" rx="20" fill="#0f172a"/>
<text x="28" y="42" fill="#f8fafc" font-family="system-ui,sans-serif" font-size="23" font-weight="700">Variação em 24h</text>
<text x="28" y="70" fill="#94a3b8" font-family="system-ui,sans-serif" font-size="15">Dados do recorte publicado no artigo</text>
<text x="28" y="117" fill="#e2e8f0" font-family="system-ui,sans-serif" font-size="16">David Alaba</text>
<rect x="285" y="95" width="480" height="28" rx="7" fill="#22c55e"/>
<text x="775" y="116" fill="#f8fafc" font-family="system-ui,sans-serif" font-size="15" font-weight="700">+48.7%</text>
<text x="28" y="175" fill="#e2e8f0" font-family="system-ui,sans-serif" font-size="16">Nathan Ngoy</text>
<rect x="285" y="153" width="458" height="28" rx="7" fill="#22c55e"/>
<text x="753" y="174" fill="#f8fafc" font-family="system-ui,sans-serif" font-size="15" font-weight="700">+46.5%</text>
<text x="28" y="233" fill="#e2e8f0" font-family="system-ui,sans-serif" font-size="16">Pau Cubarsí</text>
<rect x="285" y="211" width="445" height="28" rx="7" fill="#22c55e"/>
<text x="740" y="232" fill="#f8fafc" font-family="system-ui,sans-serif" font-size="15" font-weight="700">+45.1%</text>
<text x="28" y="291" fill="#e2e8f0" font-family="system-ui,sans-serif" font-size="16">Steffi Jones</text>
<rect x="285" y="269" width="419" height="28" rx="7" fill="#22c55e"/>
<text x="714" y="290" fill="#f8fafc" font-family="system-ui,sans-serif" font-size="15" font-weight="700">+42.5%</text>
<text x="28" y="349" fill="#e2e8f0" font-family="system-ui,sans-serif" font-size="16">Youri Baas</text>
<rect x="285" y="327" width="307" height="28" rx="7" fill="#22c55e"/>
<text x="602" y="348" fill="#f8fafc" font-family="system-ui,sans-serif" font-size="15" font-weight="700">+31.1%</text>
<text x="28" y="407" fill="#e2e8f0" font-family="system-ui,sans-serif" font-size="16">Aldana Cometti</text>
<rect x="285" y="385" width="289" height="28" rx="7" fill="#22c55e"/>
<text x="584" y="406" fill="#f8fafc" font-family="system-ui,sans-serif" font-size="15" font-weight="700">+29.3%</text>
</svg>
