<svg xmlns="http://www.w3.org/2000/svg" width="900" height="463" viewBox="0 0 900 463" role="img" aria-labelledby="title desc">
<title id="title">Variação em 24h: Mercado EA FC em 22/07: Zagueiros — Console (PS)</title>
<desc id="desc">Gráfico gerado a partir da tabela publicada neste artigo.</desc>
<rect width="100%" height="100%" rx="20" fill="#0f172a"/>
<text x="28" y="42" fill="#f8fafc" font-family="system-ui,sans-serif" font-size="23" font-weight="700">Variação em 24h</text>
<text x="28" y="70" fill="#94a3b8" font-family="system-ui,sans-serif" font-size="15">Dados do recorte publicado no artigo</text>
<text x="28" y="117" fill="#e2e8f0" font-family="system-ui,sans-serif" font-size="16">Jürgen Kohler</text>
<rect x="285" y="95" width="480" height="28" rx="7" fill="#22c55e"/>
<text x="775" y="116" fill="#f8fafc" font-family="system-ui,sans-serif" font-size="15" font-weight="700">+49.7%</text>
<text x="28" y="175" fill="#e2e8f0" font-family="system-ui,sans-serif" font-size="16">Laura Georges</text>
<rect x="285" y="153" width="406" height="28" rx="7" fill="#22c55e"/>
<text x="701" y="174" fill="#f8fafc" font-family="system-ui,sans-serif" font-size="15" font-weight="700">+42.0%</text>
<text x="28" y="233" fill="#e2e8f0" font-family="system-ui,sans-serif" font-size="16">Ousmane Diomande</text>
<rect x="285" y="211" width="405" height="28" rx="7" fill="#22c55e"/>
<text x="700" y="232" fill="#f8fafc" font-family="system-ui,sans-serif" font-size="15" font-weight="700">+41.9%</text>
<text x="28" y="291" fill="#e2e8f0" font-family="system-ui,sans-serif" font-size="16">Bobby Moore</text>
<rect x="285" y="269" width="381" height="28" rx="7" fill="#22c55e"/>
<text x="676" y="290" fill="#f8fafc" font-family="system-ui,sans-serif" font-size="15" font-weight="700">+39.4%</text>
<text x="28" y="349" fill="#e2e8f0" font-family="system-ui,sans-serif" font-size="16">Marcos Senesi</text>
<rect x="285" y="327" width="342" height="28" rx="7" fill="#22c55e"/>
<text x="637" y="348" fill="#f8fafc" font-family="system-ui,sans-serif" font-size="15" font-weight="700">+35.4%</text>
<text x="28" y="407" fill="#e2e8f0" font-family="system-ui,sans-serif" font-size="16">Vincent Kompany</text>
<rect x="285" y="385" width="338" height="28" rx="7" fill="#22c55e"/>
<text x="633" y="406" fill="#f8fafc" font-family="system-ui,sans-serif" font-size="15" font-weight="700">+35.0%</text>
</svg>
