<svg xmlns="http://www.w3.org/2000/svg" width="900" height="463" viewBox="0 0 900 463" role="img" aria-labelledby="title desc">
<title id="title">Variação em 24h: Mercado EA FC em 23/07: Zagueiros — PC</title>
<desc id="desc">Gráfico gerado a partir da tabela publicada neste artigo.</desc>
<rect width="100%" height="100%" rx="20" fill="#0f172a"/>
<text x="28" y="42" fill="#f8fafc" font-family="system-ui,sans-serif" font-size="23" font-weight="700">Variação em 24h</text>
<text x="28" y="70" fill="#94a3b8" font-family="system-ui,sans-serif" font-size="15">Dados do recorte publicado no artigo</text>
<text x="28" y="117" fill="#e2e8f0" font-family="system-ui,sans-serif" font-size="16">Evan Weir</text>
<rect x="285" y="95" width="480" height="28" rx="7" fill="#22c55e"/>
<text x="775" y="116" fill="#f8fafc" font-family="system-ui,sans-serif" font-size="15" font-weight="700">+57.0%</text>
<text x="28" y="175" fill="#e2e8f0" font-family="system-ui,sans-serif" font-size="16">Wilfried Singo</text>
<rect x="285" y="153" width="467" height="28" rx="7" fill="#22c55e"/>
<text x="762" y="174" fill="#f8fafc" font-family="system-ui,sans-serif" font-size="15" font-weight="700">+55.4%</text>
<text x="28" y="233" fill="#e2e8f0" font-family="system-ui,sans-serif" font-size="16">David Alaba</text>
<rect x="285" y="211" width="433" height="28" rx="7" fill="#22c55e"/>
<text x="728" y="232" fill="#f8fafc" font-family="system-ui,sans-serif" font-size="15" font-weight="700">+51.4%</text>
<text x="28" y="291" fill="#e2e8f0" font-family="system-ui,sans-serif" font-size="16">Marcos Senesi</text>
<rect x="285" y="269" width="426" height="28" rx="7" fill="#22c55e"/>
<text x="721" y="290" fill="#f8fafc" font-family="system-ui,sans-serif" font-size="15" font-weight="700">+50.6%</text>
<text x="28" y="349" fill="#e2e8f0" font-family="system-ui,sans-serif" font-size="16">Cameron Burgess</text>
<rect x="285" y="327" width="421" height="28" rx="7" fill="#22c55e"/>
<text x="716" y="348" fill="#f8fafc" font-family="system-ui,sans-serif" font-size="15" font-weight="700">+50.0%</text>
<text x="28" y="407" fill="#e2e8f0" font-family="system-ui,sans-serif" font-size="16">Carles Puyol</text>
<rect x="285" y="385" width="416" height="28" rx="7" fill="#22c55e"/>
<text x="711" y="406" fill="#f8fafc" font-family="system-ui,sans-serif" font-size="15" font-weight="700">+49.4%</text>
</svg>
